<svg xmlns="http://www.w3.org/2000/svg" viewBox="0 0 120 120"><defs><style>.cls-1{fill:#c9cbcb;}</style></defs><path id="White" class="cls-1" d="M1153.29,479H1046.54a6.62,6.62,0,0,0-6.62,6.62V592.4a6.62,6.62,0,0,0,6.62,6.62H1104V552.55h-15.64V534.44H1104V521.08c0-15.5,9.47-23.94,23.29-23.94a128.31,128.31,0,0,1,14,.71v16.2h-9.59c-7.52,0-9,3.57-9,8.82v11.56h17.93l-2.34,18.11h-15.6V599h30.58a6.62,6.62,0,0,0,6.62-6.62V485.64A6.62,6.62,0,0,0,1153.29,479Z" transform="translate(-1039.91 -479.02)"/></svg>