<svg xmlns="http://www.w3.org/2000/svg" viewBox="0 0 147.66 120"><defs><style>.cls-1{fill:#c9cbcb;}</style></defs><path class="cls-1" d="M939.92,493.22a60.56,60.56,0,0,1-17.4,4.77,30.38,30.38,0,0,0,13.32-16.76,60.65,60.65,0,0,1-19.24,7.35A30.32,30.32,0,0,0,865,516.22a86,86,0,0,1-62.44-31.65A30.33,30.33,0,0,0,811.91,525a30.17,30.17,0,0,1-13.72-3.79c0,.13,0,.25,0,.38a30.31,30.31,0,0,0,24.3,29.71,30.37,30.37,0,0,1-13.68.52,30.33,30.33,0,0,0,28.3,21,60.78,60.78,0,0,1-37.62,13,61.67,61.67,0,0,1-7.23-.42A85.75,85.75,0,0,0,838.7,599c55.72,0,86.19-46.16,86.19-86.19q0-2-.09-3.92A61.57,61.57,0,0,0,939.92,493.22Z" transform="translate(-792.26 -479.02)"/></svg>