<svg id="レイヤー_1" data-name="レイヤー 1" xmlns="http://www.w3.org/2000/svg" viewBox="0 0 36 619.9"><defs><style>.cls-1{fill:#d4d5db;}</style></defs><path class="cls-1" d="M323.25-279.85v-11.9h4.3v28.7h-4.3V-275h-30.6v-4.9Z" transform="translate(-292.05 291.75)"/><path class="cls-1" d="M302.65-208.35v-13.1l-10-3.5v-5l34.9,12.5v5.1l-34.8,12.5v-5Zm20.1-6.5s-3.2-.8-4.9-1.4l-11-3.9v10.6l11-3.8c1.7-.7,4.9-1.4,4.9-1.5Z" transform="translate(-292.05 291.75)"/><path class="cls-1" d="M327.55-164.25v4.9h-14.7v5.2l14.7,8.8v5.4L311-150.05h-.1l-18.2,10.7v-5.5l16-9.3v-5.2h-16v-4.9h34.8Z" transform="translate(-292.05 291.75)"/><path class="cls-1" d="M302.65-86.35v-13.1l-10-3.4v-5l34.8,12.5v5.1l-34.8,12.5v-5.1Zm20.1-6.5s-3.2-.8-4.9-1.4l-11-3.9v10.6l11-3.8a47.35,47.35,0,0,1,4.9-1.5Z" transform="translate(-292.05 291.75)"/><path class="cls-1" d="M307.45-36.25,327.55-48v5.5L316.15-36a40.34,40.34,0,0,1-4.4,2.1v.1s2.4,1,4.4,2.1l11.4,6.4v5.5l-20.1-11.6h-14.7v-4.9Z" transform="translate(-292.05 291.75)"/><path class="cls-1" d="M302.65,31.65V18.55l-10-3.4v-5l34.8,12.5v5.1l-34.8,12.5v-5.1Zm20.1-6.5s-3.2-.8-4.9-1.4l-11-3.9v10.6l11-3.9c1.7-.6,4.9-1.3,4.9-1.4Z" transform="translate(-292.05 291.75)"/><path class="cls-1" d="M328.05,130.15a17.55,17.55,0,0,1-17.8,17.9c-10.3,0-18.2-7.8-18.2-17.9a17.82,17.82,0,0,1,18.2-17.9A17.61,17.61,0,0,1,328.05,130.15Zm-31.5,0c0,7.1,5.9,12.8,13.8,12.8,7.6,0,13.3-5.7,13.3-12.8a13,13,0,0,0-13.3-12.9C302.55,117.25,296.55,123,296.55,130.15Z" transform="translate(-292.05 291.75)"/><path class="cls-1" d="M327.55,183.25v4.9h-15.3v18h15.3V211h-34.8v-4.9H308v-18h-15.3v-4.9Z" transform="translate(-292.05 291.75)"/><path class="cls-1" d="M323.25,255.25v-11.9h4.3V272h-4.3v-11.9h-30.6v-4.9h30.6Z" transform="translate(-292.05 291.75)"/><path class="cls-1" d="M302.65,319.65v-13.1l-10-3.5v-5l34.8,12.5v5.1l-34.8,12.5v-5Zm20.1-6.5s-3.2-.8-4.9-1.4l-11-3.9v10.5l11-3.8c1.7-.6,4.9-1.3,4.9-1.4Z" transform="translate(-292.05 291.75)"/></svg>