<?xml version="1.0" encoding="utf-8"?>
<!-- Generator: Adobe Illustrator 16.0.0, SVG Export Plug-In . SVG Version: 6.00 Build 0)  -->
<!DOCTYPE svg PUBLIC "-//W3C//DTD SVG 1.1//EN" "http://www.w3.org/Graphics/SVG/1.1/DTD/svg11.dtd">
<svg version="1.1" id="Layer_1" xmlns="http://www.w3.org/2000/svg" xmlns:xlink="http://www.w3.org/1999/xlink" x="0px" y="0px"
	 width="400px" height="800px" viewBox="0 0 400 800" enable-background="new 0 0 400 800" xml:space="preserve">
<g>
	<path d="M22.769,386.449h3.244l-4.722,22.582H18.4l-3.694-15.739L10.98,409.03H8.09l-4.722-22.582h3.244l3.277,16.799l3.597-16.414
		h2.409l3.598,16.414L22.769,386.449z"/>
	<path d="M43.391,409.127h-3.212v-29.359h3.212V409.127z"/>
	<path d="M70.63,402.51h3.116v0.899c0,1.948-0.669,3.453-2.008,4.513c-1.338,1.061-3.196,1.59-5.573,1.59
		c-2.078,0-3.855-0.545-5.333-1.638s-2.216-2.688-2.216-4.786v-10.954c0-1.991,0.728-3.533,2.184-4.625
		c1.456-1.092,3.245-1.638,5.365-1.638c2.184,0,3.988,0.536,5.412,1.606c1.424,1.071,2.136,2.495,2.136,4.272v7.934H61.796v3.18
		c0,2.654,1.488,3.982,4.465,3.982c2.912,0,4.369-1.242,4.369-3.726V402.51z M61.764,392.648v4.4h8.801v-4.561
		c0-1.349-0.417-2.355-1.253-3.02c-0.835-0.664-1.884-0.996-3.147-0.996c-1.264,0-2.313,0.332-3.148,0.996
		C62.182,390.132,61.764,391.192,61.764,392.648z"/>
	<path d="M99.731,402.51h3.116v0.899c0,1.948-0.669,3.453-2.008,4.513c-1.338,1.061-3.196,1.59-5.573,1.59
		c-2.078,0-3.855-0.545-5.333-1.638s-2.216-2.688-2.216-4.786v-10.954c0-1.991,0.728-3.533,2.184-4.625
		c1.456-1.092,3.245-1.638,5.365-1.638c2.184,0,3.988,0.536,5.412,1.606c1.424,1.071,2.136,2.495,2.136,4.272v7.934H90.898v3.18
		c0,2.654,1.488,3.982,4.465,3.982c2.912,0,4.369-1.242,4.369-3.726V402.51z M90.866,392.648v4.4h8.801v-4.561
		c0-1.349-0.417-2.355-1.253-3.02c-0.835-0.664-1.884-0.996-3.147-0.996c-1.264,0-2.313,0.332-3.148,0.996
		C91.283,390.132,90.866,391.192,90.866,392.648z"/>
	<path d="M111.52,381.47c0.021,1.199-0.3,2.404-0.964,3.614c-0.664,1.21-1.36,2.093-2.088,2.65l-1.381-0.578
		c1.006-1.006,1.553-2.216,1.638-3.63c-0.578-0.021-1.071-0.246-1.478-0.674s-0.61-0.985-0.61-1.67c0-0.578,0.193-1.103,0.578-1.574
		c0.386-0.471,0.889-0.749,1.51-0.835c0.814-0.107,1.483,0.112,2.008,0.659C111.257,379.977,111.52,380.657,111.52,381.47z"/>
	<path d="M121.638,402.188h3.148v1.638c0,0.965,0.428,1.734,1.285,2.313c0.856,0.578,1.895,0.867,3.116,0.867
		s2.211-0.333,2.971-0.996s1.141-1.413,1.141-2.248v-1.253c0-0.428-0.081-0.813-0.241-1.156c-0.161-0.342-0.401-0.637-0.723-0.883
		c-0.321-0.246-0.626-0.444-0.916-0.594s-0.648-0.311-1.076-0.482l-4.4-1.767c-0.536-0.214-1.007-0.428-1.414-0.643
		c-0.407-0.214-0.846-0.498-1.317-0.851c-0.471-0.354-0.835-0.776-1.092-1.269c-0.257-0.492-0.386-1.039-0.386-1.638v-2.313
		c0-1.756,0.696-3.068,2.088-3.935s3.02-1.301,4.882-1.301c1.949,0,3.657,0.439,5.124,1.317c1.467,0.878,2.2,2.12,2.2,3.726v1.574
		h-3.18v-1.188c0-0.856-0.434-1.525-1.301-2.007c-0.867-0.482-1.814-0.723-2.843-0.723c-1.092,0-1.997,0.273-2.714,0.819
		c-0.718,0.546-1.076,1.312-1.076,2.297v0.739c0,0.686,0.214,1.236,0.643,1.654c0.428,0.417,1.103,0.819,2.023,1.205l4.401,1.895
		c0.663,0.3,1.199,0.552,1.606,0.755c0.406,0.204,0.862,0.482,1.365,0.835c0.503,0.354,0.877,0.755,1.124,1.205
		c0.246,0.45,0.37,0.953,0.37,1.51v2.795c0,1.67-0.67,3.02-2.008,4.047c-1.338,1.027-3.196,1.542-5.573,1.542
		c-1.242,0-2.393-0.183-3.453-0.546c-1.06-0.365-1.955-0.985-2.683-1.863c-0.728-0.879-1.092-1.949-1.092-3.212V402.188z"/>
	<path d="M176.18,392.52v7.42c0.064,1.863-0.568,3.4-1.896,4.609c-1.328,1.21-3.095,1.815-5.3,1.815c-2.356,0-4.069-0.653-5.14-1.96
		v7.1h-3.212v-25.087h3.116v1.51c0.985-1.349,2.677-2.024,5.075-2.024c2.227,0,4.01,0.562,5.348,1.687
		C175.51,388.713,176.18,390.357,176.18,392.52z M173.032,399.586v-7.099c0-1.349-0.445-2.329-1.333-2.939
		c-0.889-0.61-1.987-0.916-3.292-0.916c-1.307,0-2.393,0.316-3.261,0.948c-0.867,0.632-1.301,1.472-1.301,2.521v7.966
		c0,1.071,0.423,1.943,1.269,2.618c0.846,0.675,1.847,1.012,3.003,1.012c1.434,0,2.612-0.326,3.533-0.979
		C172.571,402.065,173.032,401.021,173.032,399.586z"/>
	<path d="M205.57,391.781v11.691c0,1.885-0.787,3.362-2.361,4.434c-1.574,1.07-3.368,1.605-5.38,1.605s-3.801-0.535-5.364-1.605
		c-1.563-1.071-2.345-2.549-2.345-4.434v-11.691c0-1.799,0.76-3.239,2.281-4.32c1.52-1.081,3.33-1.622,5.428-1.622
		s3.914,0.541,5.445,1.622C204.805,388.542,205.57,389.982,205.57,391.781z M202.359,402.67v-9.989c0-1.499-0.43-2.559-1.286-3.18
		c-0.857-0.621-1.938-0.932-3.245-0.932c-2.998,0-4.497,1.371-4.497,4.112v9.989c0,1.479,0.422,2.533,1.269,3.164
		c0.846,0.632,1.922,0.947,3.228,0.947c1.285,0,2.361-0.32,3.228-0.963C201.924,405.176,202.359,404.127,202.359,402.67z"/>
	<path d="M230.979,385.807v3.051c-1.928,0.043-3.641,0.766-5.139,2.168c-1.5,1.403-2.25,2.875-2.25,4.417v13.684h-3.211v-22.71
		h3.211v3.533c0.729-1.242,1.789-2.243,3.18-3.003C228.162,386.187,229.564,385.807,230.979,385.807z"/>
	<path d="M256.258,406.075v2.827c-0.857,0.428-2.121,0.643-3.791,0.643c-1.777,0-3.164-0.568-4.16-1.703
		c-0.994-1.135-1.492-2.741-1.492-4.818v-13.266h-3.92v-2.762h3.92v-7.356h3.244v7.356h5.975v2.762h-5.975v13.684
		c0,2.205,0.941,3.309,2.826,3.309C254.213,406.75,255.336,406.525,256.258,406.075z"/>
	<path d="M281.793,379.704v2.827c-0.941-0.342-1.926-0.514-2.955-0.514c-1.863,0-2.793,1.114-2.793,3.341v2.184h5.813v2.763h-5.813
		v18.823h-3.213v-18.823h-4.305v-2.763h4.305v-2.538c0-1.863,0.541-3.303,1.621-4.32c1.082-1.017,2.555-1.504,4.418-1.461
		C280.027,379.265,281.002,379.425,281.793,379.704z"/>
	<path d="M310.479,391.781v11.691c0,1.885-0.787,3.362-2.361,4.434c-1.574,1.07-3.367,1.605-5.381,1.605s-3.801-0.535-5.363-1.605
		c-1.564-1.071-2.346-2.549-2.346-4.434v-11.691c0-1.799,0.76-3.239,2.281-4.32c1.52-1.081,3.328-1.622,5.428-1.622
		s3.914,0.541,5.445,1.622C309.713,388.542,310.479,389.982,310.479,391.781z M307.266,402.67v-9.989
		c0-1.499-0.428-2.559-1.285-3.18c-0.855-0.621-1.938-0.932-3.244-0.932c-2.998,0-4.496,1.371-4.496,4.112v9.989
		c0,1.479,0.422,2.533,1.268,3.164c0.846,0.632,1.922,0.947,3.229,0.947c1.285,0,2.361-0.32,3.229-0.963
		S307.266,404.127,307.266,402.67z"/>
	<path d="M328.883,409.127h-3.211v-29.359h3.211V409.127z"/>
	<path d="M348.51,409.127h-3.213v-29.359h3.213V409.127z"/>
	<path d="M364.377,381.92c0-0.75,0.24-1.37,0.723-1.863c0.482-0.492,1.086-0.739,1.814-0.739s1.334,0.247,1.814,0.739
		c0.482,0.493,0.723,1.114,0.723,1.863c0,0.728-0.24,1.333-0.723,1.815c-0.48,0.481-1.086,0.723-1.814,0.723
		s-1.332-0.241-1.814-0.723C364.617,383.253,364.377,382.648,364.377,381.92z M368.521,409.127h-3.182v-21.072h3.182V409.127z"/>
	<path d="M399.484,391.781v11.691c0,1.885-0.787,3.362-2.361,4.434c-1.574,1.07-3.367,1.605-5.379,1.605
		c-2.014,0-3.803-0.535-5.365-1.605c-1.563-1.071-2.344-2.549-2.344-4.434v-11.691c0-1.799,0.76-3.239,2.279-4.32
		c1.521-1.081,3.33-1.622,5.43-1.622c2.098,0,3.912,0.541,5.443,1.622C398.719,388.542,399.484,389.982,399.484,391.781z
		 M396.273,402.67v-9.989c0-1.499-0.43-2.559-1.285-3.18c-0.857-0.621-1.939-0.932-3.244-0.932c-3,0-4.498,1.371-4.498,4.112v9.989
		c0,1.479,0.424,2.533,1.27,3.164c0.846,0.632,1.922,0.947,3.229,0.947c1.283,0,2.359-0.32,3.227-0.963
		C395.84,405.176,396.273,404.127,396.273,402.67z"/>
</g>
</svg>
