<svg xmlns="http://www.w3.org/2000/svg" viewBox="0 0 619.9 36"><defs><style>.cls-1{fill:#565757;}</style></defs><path class="cls-1" d="M12,5H.1V.7H28.8V5H16.9V35.6H12Z" transform="translate(-0.1 -0.2)"/><path class="cls-1" d="M83.5,25.6H70.4l-3.5,10h-5L74.4.7h5.1L92,35.5H87ZM77,5.5s-.8,3.2-1.4,4.9l-3.9,11H82.3l-3.8-11c-.7-1.7-1.4-4.9-1.5-4.9Z" transform="translate(-0.1 -0.2)"/><path class="cls-1" d="M127.6.7h4.9V15.4h5.2L146.5.7h5.4L141.8,17.2v.1l10.7,18.2H147l-9.3-16h-5.2v16h-4.9V.7Z" transform="translate(-0.1 -0.2)"/><path class="cls-1" d="M205.5,25.6H192.4l-3.4,10h-5L196.5.8h5.1l12.5,34.8H209ZM199,5.5s-.8,3.2-1.4,4.9l-3.9,11h10.6l-3.8-11A47.35,47.35,0,0,1,199,5.5Z" transform="translate(-0.1 -0.2)"/><path class="cls-1" d="M255.6,20.8,243.9.7h5.5l6.5,11.4a40.34,40.34,0,0,1,2.1,4.4h.1s1-2.4,2.1-4.4L266.6.7h5.5L260.5,20.8V35.5h-4.9Z" transform="translate(-0.1 -0.2)"/><path class="cls-1" d="M323.5,25.6H310.4l-3.4,10h-5L314.5.8h5.1l12.5,34.8H327ZM317,5.5s-.8,3.2-1.4,4.9l-3.9,11h10.6l-3.9-11c-.6-1.7-1.3-4.9-1.4-4.9Z" transform="translate(-0.1 -0.2)"/><path class="cls-1" d="M422,.2A17.55,17.55,0,0,1,439.9,18c0,10.3-7.8,18.2-17.9,18.2A17.82,17.82,0,0,1,404.1,18,17.61,17.61,0,0,1,422,.2Zm0,31.5c7.1,0,12.8-5.9,12.8-13.8,0-7.6-5.7-13.3-12.8-13.3a13,13,0,0,0-12.9,13.3C409.1,25.7,414.9,31.7,422,31.7Z" transform="translate(-0.1 -0.2)"/><path class="cls-1" d="M475.1.7H480V16h18V.7h4.9V35.5H498V20.3H480V35.6h-4.9Z" transform="translate(-0.1 -0.2)"/><path class="cls-1" d="M547.1,5H535.2V.7h28.7V5H552V35.6h-4.9V5Z" transform="translate(-0.1 -0.2)"/><path class="cls-1" d="M611.5,25.6H598.4l-3.5,10h-5L602.4.8h5.1L620,35.6h-5ZM605,5.5s-.8,3.2-1.4,4.9l-3.9,11h10.5l-3.8-11c-.6-1.7-1.3-4.9-1.4-4.9Z" transform="translate(-0.1 -0.2)"/></svg>