<?xml version="1.0" encoding="utf-8"?>
<svg version="1.1" id="レイヤー_1" xmlns="http://www.w3.org/2000/svg" xmlns:xlink="http://www.w3.org/1999/xlink" x="0px"
	 y="0px" viewBox="0 0 424.2 34.3" style="enable-background:new 0 0 424.2 34.3;" xml:space="preserve">
<style type="text/css">
	.st0{fill:#fff;}
	.st1{fill:#fff;}
</style>
<g>
	<polygon class="st0" points="31.4,3.8 42,3.8 42,33.8 45.2,33.8 45.2,3.8 55.7,3.8 55.7,0.6 31.4,0.6 	"/>
	<path class="st0" d="M92.3,20.1C92.3,27.1,88.6,31,82,31c-6.7,0-10.4-3.9-10.4-10.9V0.4h-3.2v19.7c0,8.8,5.1,14.1,13.6,14.1
		c8.5,0,13.6-5.3,13.6-14.1V0.4h-3.2V20.1z"/>
	<path class="st0" d="M120.4,0.4h-10.2v33.4h10.2c9.6,0,17.1-7.3,17.1-16.7C137.5,7.7,130,0.4,120.4,0.4z M120.4,30.6h-7V3.5h7
		c7.8,0,13.8,6,13.8,13.5C134.2,24.7,128.1,30.6,120.4,30.6z"/>
	<rect x="150.6" y="0.4" class="st0" width="3.2" height="33.4"/>
	<path class="st0" d="M184.6,0c-9.4,0-17.1,7.7-17.1,17.1c0,9.4,7.7,17.1,17.1,17.1c9.4,0,17.1-7.7,17.1-17.1
		C201.7,7.7,194,0,184.6,0z M184.6,31c-7.6,0-13.8-6.3-13.8-13.9c0-7.7,6.2-13.9,13.8-13.9c7.6,0,13.8,6.3,13.8,13.9
		C198.4,24.8,192.2,31,184.6,31z"/>
	<path class="st0" d="M10.8,15C7,13.2,4.3,11.9,4.3,8.6C4.3,3.4,9.4,3,11,3c2.4,0,5.2,0.9,6.9,1.8l0.9-2.7c-1.9-0.9-4.9-1.8-8.2-1.8
		C6,0.3,1.1,2.6,1.1,8.9c0,4.9,3,6.5,7.9,8.8c4.7,2.2,7.3,4,7.3,7.4c0,3.9-2.4,6.1-6.5,6.1c-2.6,0-6-0.8-8.9-2L0,31.9
		c2.7,1.1,6.8,1.9,9.9,1.9c6.1,0,9.6-3.3,9.6-9.1C19.5,19.5,15.9,17.4,10.8,15z"/>
</g>
<g>
	<path class="st1" d="M237.7,0.4h-10.3v33.6h10.3c9.6,0,17.2-7.4,17.2-16.8C254.8,7.7,247.3,0.4,237.7,0.4z M237.7,30.8h-7V3.5h7
		c7.8,0,13.9,6,13.9,13.6C251.6,24.8,245.5,30.8,237.7,30.8z"/>
	<polygon class="st1" points="268.3,22.8 279.9,22.8 279.9,19.7 268.3,19.7 268.3,3.7 281.5,3.7 281.5,0.6 265.1,0.6 265.1,33.9 
		282,33.9 282,30.8 268.3,30.8 	"/>
	<polygon class="st1" points="292.9,3.7 303.6,3.7 303.6,33.9 306.8,33.9 306.8,3.7 317.4,3.7 317.4,0.6 292.9,0.6 	"/>
	<rect x="362.8" y="0.4" class="st1" width="3.2" height="33.6"/>
	<polygon class="st1" points="381.7,0.4 378.5,0.4 378.5,33.9 395.4,33.9 395.4,30.8 381.7,30.8 	"/>
	<path class="st1" d="M415.5,15.4c-3.8-1.8-6.6-3.1-6.6-6.4c0-5.2,5.1-5.7,6.7-5.7c2.4,0,5.2,0.9,6.9,1.8l0.9-2.7
		c-1.9-0.9-5-1.8-8.2-1.8c-4.6,0-9.5,2.3-9.5,8.6c0,4.9,3,6.5,7.9,8.8c4.7,2.2,7.3,4,7.3,7.4c0,3.9-2.4,6.1-6.5,6.1
		c-2.7,0-6.1-0.8-9-2l-0.8,2.9c2.7,1.2,6.8,2,10,2c6.1,0,9.6-3.3,9.6-9.2C424.2,19.9,420.6,17.8,415.5,15.4z"/>
	<polygon class="st1" points="343.8,17.1 336.9,0.5 333.7,2.5 327.7,17.1 320.8,33.9 324.3,33.9 328.7,23.1 340,16.4 340.3,17.1 
		341.4,19.7 342.6,22.8 347.1,33.9 350.7,33.9 	"/>
</g>
</svg>
