<?xml version="1.0" encoding="utf-8"?>
<svg version="1.1" id="レイヤー_1" xmlns="http://www.w3.org/2000/svg" xmlns:xlink="http://www.w3.org/1999/xlink" x="0px"
	 y="0px" viewBox="0 0 360 146.9" style="enable-background:new 0 0 360 146.9;" xml:space="preserve">
<style type="text/css">
	<!-- .st0{fill:#9FA0A0;}
	.st1{fill:#4C4948;} -->
	.st0{fill:#fff;}
	.st1{fill:#fff;}
</style>
<g>
	<g>
		<polygon class="st0" points="56.1,6.7 74.9,6.7 74.9,60.3 80.6,60.3 80.6,6.7 99.5,6.7 99.5,1.1 56.1,1.1 		"/>
		<path class="st0" d="M164.8,35.9c0,12.4-6.8,19.5-18.5,19.5c-11.9,0-18.5-6.9-18.5-19.5V0.7h-5.7v35.2c0,15.7,9.1,25.1,24.2,25.1
			c15.2,0,24.2-9.4,24.2-25.1V0.7h-5.7V35.9z"/>
		<path class="st0" d="M214.9,0.7h-18.2v59.6h18.2c17.1,0,30.5-13.1,30.5-29.8C245.4,13.8,232,0.7,214.9,0.7z M214.9,54.7h-12.5V6.3
			h12.5c13.8,0,24.7,10.6,24.7,24.2C239.6,44.1,228.7,54.7,214.9,54.7z"/>
		<rect x="268.9" y="0.7" class="st0" width="5.7" height="59.6"/>
		<path class="st0" d="M329.5,0C312.7,0,299,13.7,299,30.5c0,16.8,13.7,30.5,30.5,30.5c16.8,0,30.5-13.7,30.5-30.5
			C360,13.7,346.3,0,329.5,0z M329.5,55.4c-13.6,0-24.7-11.2-24.7-24.9c0-13.7,11.1-24.9,24.7-24.9c13.6,0,24.7,11.2,24.7,24.9
			C354.2,44.2,343.1,55.4,329.5,55.4z"/>
		<path class="st0" d="M19.4,26.8c-6.8-3.2-11.7-5.5-11.7-11.4c0-9.3,9.1-10,11.9-10c4.2,0,9.2,1.6,12.3,3.2l1.6-4.8
			c-3.3-1.5-8.8-3.1-14.6-3.1C10.7,0.6,2,4.6,2,15.8c0,8.7,5.3,11.6,14,15.6c8.4,3.9,13,7.1,13,13.1c0,6.9-4.2,10.9-11.6,10.9
			c-4.7,0-10.8-1.4-16-3.6L0,57c4.8,2,12.1,3.5,17.7,3.5c10.9,0,17.1-5.9,17.1-16.2C34.8,34.9,28.4,31.1,19.4,26.8z"/>
	</g>
	<g>
		<path class="st1" d="M22.5,86.3H4.2v59.9h18.3c17.2,0,30.7-13.1,30.7-29.9C53.2,99.4,39.7,86.3,22.5,86.3z M22.5,140.5H9.9V91.9
			h12.6c13.9,0,24.8,10.7,24.8,24.3C47.3,129.9,36.4,140.5,22.5,140.5z"/>
		<polygon class="st1" points="77.2,126.4 98,126.4 98,120.8 77.2,120.8 77.2,92.3 100.7,92.3 100.7,86.6 71.5,86.6 71.5,146.2 
			101.6,146.2 101.6,140.5 77.2,140.5 		"/>
		<polygon class="st1" points="121.2,92.3 140.1,92.3 140.1,146.2 145.8,146.2 145.8,92.3 164.8,92.3 164.8,86.6 121.2,86.6 		"/>
		<rect x="245.9" y="86.3" class="st1" width="5.8" height="59.9"/>
		<polygon class="st1" points="279.6,86.3 273.9,86.3 273.9,146.2 304,146.2 304,140.5 279.6,140.5 		"/>
		<path class="st1" d="M339.9,113.1c-6.8-3.2-11.7-5.5-11.7-11.4c0-9.4,9.1-10.1,12-10.1c4.2,0,9.3,1.6,12.4,3.2l1.6-4.9
			c-3.3-1.6-8.9-3.2-14.7-3.2c-8.2,0-17,4-17,15.3c0,8.7,5.4,11.7,14.1,15.7c8.5,3.9,13,7.1,13,13.2c0,7-4.2,11-11.6,11
			c-4.7,0-10.9-1.4-16.1-3.6l-1.5,5.1c4.8,2.1,12.1,3.5,17.8,3.5c10.9,0,17.2-6,17.2-16.3C355.4,121.2,349,117.4,339.9,113.1z"/>
		<polygon class="st1" points="211.9,116.2 199.7,86.6 193.9,90 183.1,116.2 170.8,146.2 177.1,146.2 185,126.9 205.2,114.8 
			205.8,116.2 207.6,120.8 209.9,126.4 217.9,146.2 224.3,146.2 		"/>
	</g>
</g>
</svg>
